# xmcd CD database file generated by Grip 3.0.7
# 
# Track frame offsets:
#       150
#       24350
#       48577
#       96830
# 
# Disc length: 2207 seconds
# 
# Revision: 2
# Processed by: cddbd v1.5.1PL0 Copyright (c) Steve Scherf et al.
# Submitted via: Grip 3.0.7
# 
DISCID=29089d04
DTITLE=B.B.King - Blues
DYEAR=1987
DGENRE=Blues
TTITLE0=I Need You Baby
TTITLE1=Please Send Me Someone To Love
TTITLE2=Outside Help
TTITLE3=Blue'n Boogie
EXTD=
EXTT0=
EXTT1=
EXTT2=
EXTT3=
PLAYORDER=
